<svg clip-rule="evenodd" fill-rule="evenodd" height="850" image-rendering="optimizeQuality" shape-rendering="geometricPrecision" text-rendering="geometricPrecision" viewBox="0 0 850 850" width="850" xmlns="http://www.w3.org/2000/svg"><g id="Layer_x0020_1"><circle cx="425" cy="425" fill="#29af33" r="425.001"/><g fill="#fefefe"><path d="m443.415 648.914h-36.8386c.897639-2.53465 1.3748-5.23701 1.3748-8.00198v-61.6595h34.0914v61.6654c0 2.7626.477166 5.46142 1.37244 7.99607zm-18.4181-127.276c-4.41969 0-7.99961-3.57992-7.99961-8.00079v-91.1339c0-4.42087 3.57992-7.99961 7.99961-7.99961 4.42087 0 7.99961 3.57874 7.99961 7.99961v91.1387c0 4.41615-3.57874 7.99607-7.99961 7.99607zm-17.0457 41.6138v-190.366h34.0914v190.366zm0-206.365v-61.6666c0-2.77441-.478347-5.47205-1.37126-7.99489h36.8351c-.894095 2.5252-1.37244 5.22284-1.37244 7.99961v61.6619h-34.0914z"/><path d="m466.041 648.914c-1.53662 0-3.06496-.441733-4.39134-1.31221-2.25355-1.4752-3.60827-3.99213-3.60827-6.68386v-345.692c0-3.22914 1.94173-6.14528 4.9252-7.3819l206.954-86.1355c2.47559-1.03228 5.29016-.753544 7.51536.729922 2.2252 1.48347 3.55985 3.98268 3.55985 6.65316v342.221c0 3.19252-1.89213 6.0756-4.82126 7.34174l-206.954 89.6056c-1.02047.437008-2.10355.654331-3.17953.654331zm38.3788-160.113c-1.59921 0-3.18662-.479528-4.54134-1.4126-2.16732-1.49173-3.45827-3.95433-3.45827-6.5882v-61.9985c0-3.32008 2.0504-6.29528 5.14961-7.4752l130.197-49.5981c2.46378-.934253 5.22048-.604725 7.3878.88819 2.16614 1.49055 3.45827 3.95906 3.45827 6.58701v61.9985c0 3.32126-2.0504 6.29528-5.14961 7.4752l-130.197 49.5993c-.924804.354331-1.88858.52441-2.84646.52441zm7.99607-64.4871v44.8772l114.196-43.5024v-44.8772z"/><path d="m383.952 648.914c-1.07835 0-2.16142-.217323-3.17953-.659056l-206.949-89.6056c-2.92914-1.26614-4.82008-4.14922-4.82008-7.34174v-342.221c0-2.6752 1.33701-5.16969 3.55866-6.65316 2.2252-1.48347 5.04567-1.75984 7.51182-.729922l206.954 86.1355c2.98229 1.24134 4.92402 4.15394 4.92402 7.3819v345.691c0 2.69173-1.35354 5.20749-3.60709 6.68386-1.32165.876379-2.85118 1.31811-4.39252 1.31811zm-47.0953-138.06c-1.04055 0-2.10355-.207874-3.12402-.641339l-112.763-47.9693c-4.06654-1.72914-5.96221-6.4252-4.23071-10.4965 1.72914-4.06536 6.42993-5.95867 10.4917-4.22953l112.759 47.9682c4.06654 1.72914 5.96221 6.4252 4.23071 10.4965-1.29213 3.04843-4.25079 4.87205-7.363 4.87205zm0-54.306c-1.04055 0-2.10355-.207874-3.12402-.640158l-112.763-47.9682c-4.06654-1.72914-5.96221-6.42402-4.23071-10.4906 1.72914-4.06654 6.42993-5.96221 10.4917-4.22953l112.759 47.9658c4.06654 1.72914 5.96221 6.4252 4.23071 10.4953-1.29213 3.04252-4.25079 4.86733-7.363 4.86733zm0-54.3036c-1.04055 0-2.10355-.205512-3.12402-.641339l-112.763-47.9682c-4.06654-1.72914-5.96221-6.4252-4.23071-10.4917 1.72914-4.06536 6.42993-5.96693 10.4917-4.22953l112.759 47.9682c4.06654 1.72914 5.96221 6.4252 4.23071 10.4917-1.29213 3.04252-4.25079 4.87087-7.363 4.87087z"/></g></g></svg>